<svg xmlns="http://www.w3.org/2000/svg" viewBox="0 0 1013.93 908.92"><defs><style>.cls-1{fill:#9ebcea;}.cls-2{fill:none;stroke:#000;stroke-miterlimit:10;stroke-width:40px;}</style></defs><g id="Layer_2" data-name="Layer 2"><path class="cls-1" d="M231.55,230l.34-1.3-9,30.64a13.31,13.31,0,0,1,1.05-2.42l-16.73,27.7a20.93,20.93,0,0,1,3.35-4.1l-24.23,23.12a30.06,30.06,0,0,1,3.33-2.38l-29.47,15.9a29.64,29.64,0,0,1,6.42-2.55L135.11,322a52.12,52.12,0,0,1,12.15-.9l-31.91-.94c19.29.67,38.78,3,57.9-.32,9.78-1.7,19.48-3.89,29.2-5.88l28.38-5.81c7.33-1.5,14.58-2.88,22.09-2.77L221,304.39a43.46,43.46,0,0,1,8.94,1.24l-30.64-9a27.92,27.92,0,0,1,5.56,2.32l-27.71-16.73a23.21,23.21,0,0,1,3.71,2.91l-23.11-24.23a23,23,0,0,1,2.87,4l-15.9-29.47a25.31,25.31,0,0,1,1.66,4.68l-7.34-31.52a34.24,34.24,0,0,1,.45,4.95l.94-31.91A57.51,57.51,0,0,1,138,195.16l9-30.64C143,178,140.05,193,132.8,205.17l16.72-27.7a57.58,57.58,0,0,1-8,9.94l24.23-23.12a92.18,92.18,0,0,1-20,14l29.46-15.9c-6.12,3.25-12.4,6.14-18.69,9.05C141,178.63,126,186.73,111.22,195.27a94.52,94.52,0,0,0-16.44,11.87C84.61,216.45,73.94,225.53,64.93,236c-8.47,9.88-16.75,25.72-21.75,34.61a51.54,51.54,0,0,0-4,8.81c-4.06,11.95-9,24.58-10.38,37.4-1.4,13.33-2.52,27.15-.73,40.52,3.85,28.65,10.35,43.48,25.49,67.94,20.06,32.39,56.35,51.46,92.65,58.74,17.1,3.43,34.82,1.44,52.18,1.89L166.45,485a64.15,64.15,0,0,1,13.48,2.25l-30.64-9c9.47,2.86,18.14,7.49,26.59,12.57l-27.71-16.72c7,4.27,14.23,8.46,20.05,14.32L145.1,464.23a33.42,33.42,0,0,1,4.16,5.54l-15.9-29.46a24.64,24.64,0,0,1,1.91,5.05l-7.35-31.52a24.4,24.4,0,0,1,.36,4.35l.94-31.91a26.8,26.8,0,0,1-.83,4.62l9-30.64a34,34,0,0,1-2.68,5.77l16.73-27.71c-5.37,8.4-13,15.42-19.75,22.69-7,7.55-13.88,15.32-21.25,22.54l24.23-23.11a73.47,73.47,0,0,1-15.09,11.27L149,355.81c-22.42,11.77-46.44,21.08-65.09,38.61C71.37,406.23,57.17,418,46.1,431.53c-1.24,1.52-2.42,3.09-3.52,4.73-6.47,9.7-12.88,20.28-18.46,30.51A41,41,0,0,0,22,471.08c-.3.73-.55,1.46-.81,2.2l-9,30.64-.42,1.48a35.77,35.77,0,0,0-.68,4.49c-.7,6.91-1.19,25.84-.95,32.66,0,.76,0,1.51.1,2.27.43,5.29,4.2,18.53,3.9,17.27.07.27,2.41,12.1,4,17.28,2.05,6.5,6.64,13.3,9.51,18.61,3.05,5.67,6,12.47,10.05,17.88,3.27,4.31,14.25,15,12.38,13.06-.09-.1,8.29,9.26,12.43,13a33.9,33.9,0,0,0,2.93,2.42c.53.37,1.09.7,1.63,1.06,7.48,5,20.87,13.2,28.83,17.39a53.14,53.14,0,0,0,7.37,3.24c12.37,4.29,25.17,8,37.9,11.06,7.49,1.8,15.11,3.11,22.66,4.61,17.29,3.45,35,6.1,52,10.83l-30.64-9a69.77,69.77,0,0,1,15.64,6.51l-27.71-16.73a44.1,44.1,0,0,1,8.16,6.49l-23.11-24.22a33.7,33.7,0,0,1,4.41,6.31l-15.9-29.47a37.13,37.13,0,0,1,2.66,7.28L142,608.23a33,33,0,0,1,.7,7.55l.94-31.91a30.43,30.43,0,0,1-.74,4.84l9-30.64a23.2,23.2,0,0,1-2.4,5.47l16.73-27.71a25.69,25.69,0,0,1-2.27,2.82l24.22-23.12a23.65,23.65,0,0,1-4.48,3.28l29.47-15.9a40.48,40.48,0,0,1-8.76,3l31.52-7.35c-28,6-57,10.39-83.48,21.61-4.05,1.72-8,3.66-11.87,5.72-13,6.89-26.62,13.28-38.83,21.64C86.15,558.2,72.34,572,59.85,586c-12.1,13.57-21.54,30-29.16,46.4a140.26,140.26,0,0,0-11.84,39.49c-.13.92-.14,1.82-.2,2.75-.53,8.84-1.74,24.51-.87,33.25.54,5.44,3.69,16.3,3.86,17.05,1.69,7.25,2.47,12.11,4.48,18.17,6.38,19.24,24.33,43.6,40.43,55.77.74.56,1.41,1.11,2.17,1.66,2.82,2,25.3,15.87,28.35,17,5.59,2.09,12,3.62,17.33,5.18,4.86,1.42,11.57,4.12,17.46,4.84,12.26,1.5,25.2.93,37.52,1.21q15.39.33,30.78.14,17.39-.24,34.73-1.18c10.84-.58,21.82-2.18,32.68-1.93l-31.92-.94a35,35,0,0,1,7.15,1.1l-30.64-9A25.35,25.35,0,0,1,216,818.7L188.27,802a19.2,19.2,0,0,1,3.24,2.66l-46.36-85.21a21,21,0,0,1,.3,4.26l.94-31.91a15.64,15.64,0,0,1-.47,2.79l9-30.64a25.29,25.29,0,0,1-2.28,5.26l16.73-27.7a31.28,31.28,0,0,1-3.71,4.57l24.22-23.12a30.56,30.56,0,0,1-6.15,4.32l29.47-15.89a48.26,48.26,0,0,1-9.27,3.23l31.52-7.34c-8.73,1.88-17.74,2.52-26.59,3.68q-13.94,1.83-27.83,4-28.25,4.5-56.22,10.6a92.83,92.83,0,0,0-46.25,15.3,94.52,94.52,0,0,0-39,31.06,94,94,0,0,0-21.21,43,94.26,94.26,0,0,0-5.42,47.23l7.34,31.52a125.77,125.77,0,0,0,39,53.69L87,864.14a125.54,125.54,0,0,0,62.55,9.91q29.38-6.37,59.09-11.06,14.37-2.25,28.81-4.08a373.79,373.79,0,0,0,56.65-11.15,45,45,0,0,0,5.4-1.92c9.78-4.16,21.66-11.35,30.95-16.6.91-.51,1.82-1,2.69-1.55,5.51-3.66,12.05-11,15.57-14.33,5.79-5.52,11.41-9.84,15.82-16.12l8.37-13.86q4.73-7.44,9.08-15.12c.32-.65.62-1.29.89-2,2.09-5.37,4.06-13.62,5.15-17.35,1.86-6.35,3.88-11.38,4.87-17.41.9-5.53,1.05-26.85,1-32.61,0-1,0-1.87-.05-2.84l-.12-.71a271.14,271.14,0,0,0-7.47-32.23l-15.9-29.47q-11.56-12.6-23.61-24.73c-.53-.47-1-.94-1.59-1.39l-1.15-.77-27.71-16.73c-10.59-5.23-24.68-8.24-34.45-10.63-13.61-3.33-28.17-2.3-42.05-2.07-9.23.16-18.48,1.33-27.7,1.85q-34.71,2-69.48,1.09l31.91.94a36,36,0,0,1-5.77-.57l30.64,9a11.58,11.58,0,0,1-2.65-1l27.71,16.72a8.27,8.27,0,0,1-2.16-1.65L245.42,628a8.65,8.65,0,0,1-1.43-2.08l15.9,29.46a9.82,9.82,0,0,1-.8-2.4l7.35,31.52a13,13,0,0,1-.26-2.64l-.94,31.92a27.51,27.51,0,0,1,1.15-6.87l-9,30.64a64.86,64.86,0,0,1,6-12.25L246.67,753a89.29,89.29,0,0,1,13.82-16.77L236.26,759.3a111.1,111.1,0,0,1,21.58-15.53l-29.46,15.89C242,752.3,256.76,747.55,271.81,744l-31.52,7.35c18.74-4.36,38.18-6.71,56.43-12.83,36-12.05,68.93-42.57,83.06-77.78C390.84,633.15,391.26,620,391.19,591c0-12.91-5.19-28.66-8-39.07-7.54-27.55-27.45-50.65-48.09-69.25-10.6-9.55-24.07-16.23-36.52-22.75a70.23,70.23,0,0,0-11.48-4.57,490.13,490.13,0,0,0-53.21-14.08c-19.09-3.81-38.79-6.57-57.54-11.83l30.64,9a54.59,54.59,0,0,1-11.22-4.6l27.71,16.72a30.32,30.32,0,0,1-6-4.72l23.12,24.23a25.62,25.62,0,0,1-2.93-4.09l15.9,29.47a24.63,24.63,0,0,1-1.92-5.4L259,521.56a27.47,27.47,0,0,1-.33-4.53l-.94,31.91a30.1,30.1,0,0,1,1.1-6l-9,30.64a42.63,42.63,0,0,1,3.33-7.23L236.45,594.1c4.5-7.24,10.46-13.15,16.56-19l-24.22,23.11c6.74-6.43,13.71-12.4,21.92-16.86l-29.46,15.89c16.08-8.32,32.5-15.81,48.05-25.25a61.7,61.7,0,0,0,8.29-6.08c11-9.49,21.55-19.78,31.65-30.25,11.34-11.74,23.18-23.6,33.52-36.23,1.05-1.28,2-2.6,3-4,3.28-4.74,7.17-11.79,9.24-15.22,1.29-2.14,6.62-10.24,9.17-15.26A40.85,40.85,0,0,0,366,460.6c2.45-6.61,7.67-24.63,9.17-31.4.22-1,.4-2,.55-3.08a155.34,155.34,0,0,0,.89-35.69c-.47-5.12-4.71-20.57-3.91-17.12.3,1.26-2.33-12-4-17.08a31.3,31.3,0,0,0-1.57-3.73c-3.16-6.62-12.39-24-16.24-30.06-.5-.78-1-1.54-1.54-2.28-9.75-13-22.19-26.32-36.22-35.46-14.74-9.6-29.78-18.93-45.25-27.29a107.08,107.08,0,0,0-11.77-5.56c-1.86-.73-3.76-1.36-5.67-2-11.39-3.61-23.09-7.39-34.76-10.08-13.63-3.14-28.32-2.07-42.08-2.33-4.23-.08-8.45.08-12.67,0l31.91.94a42.35,42.35,0,0,1-7.61-.95l30.65,9a23.79,23.79,0,0,1-5.46-2.34l27.71,16.72a15.41,15.41,0,0,1-2.34-1.84l23.11,24.22a22.45,22.45,0,0,1-3.4-4.63L271.4,308a29.86,29.86,0,0,1-2-5.51L276.79,334a37.27,37.27,0,0,1-.67-7.23l-.94,31.91a40.45,40.45,0,0,1,1.2-8.26l-9,30.64A44.62,44.62,0,0,1,271.83,371L255.1,398.69a61.81,61.81,0,0,1,9-11.16l-24.22,23.11a99.61,99.61,0,0,1,20.66-14.86l-29.46,15.9c24.09-12.94,50-22.36,72.57-38.19,7.69-5.39,14.17-12.34,20.91-18.78s14-12.44,19.36-20.28A341.33,341.33,0,0,0,363,302.71a62.78,62.78,0,0,0,3.2-7.28c1.79-4.77,3.16-9.69,4.62-14.57q2.25-7.59,4.51-15.18c3.67-12.42,10.16-28.91,11.59-43.29,2.58-26,1.83-49.28-8.11-74a156.49,156.49,0,0,0-17.94-32.84c-3.18-4.42-13.59-14.38-12.73-13.48-2.65-2.78-8.54-10-13.32-13.7-4.54-3.55-13.3-8.18-15.8-9.69-1.21-.73-10.39-6.93-15.43-9.19-6-2.72-13.44-4.26-19.31-6s-13-4.44-19.67-5.35c-12.23-1.68-25.21-1.31-37.17-1.32-8.58,0-16.83,1.84-25.2,3.55l-35.95,7.35c-12.09,2.48-24.14,5.38-36.56,5.11l31.91.94c-30.59-1.09-57.66-4.19-86.79,8.33-26,11.15-42,22.21-60.47,43.55C-3.26,146.1-8.46,165.64-15,190.94a93.62,93.62,0,0,0,2.73,47.67A94,94,0,0,0,7.27,283.84a94,94,0,0,0,37,32.59,93.56,93.56,0,0,0,44.49,17.33l31.91.94a124.33,124.33,0,0,0,61-23.24l24.23-23.12A124.73,124.73,0,0,0,231.55,230Z" transform="translate(16.9 -54.42)"/><path class="cls-1" d="M613.87,242.39c10.84,9.84,24.07,16.71,36.58,24.1a92,92,0,0,0,16.44,7.82c13.52,4.73,27.64,9.47,41.94,11.49a103.63,103.63,0,0,0,11,.86c11.75.42,23.61,1.24,35.37.66,22.06-1.1,43.89-6.84,65.19-12.07a242.79,242.79,0,0,0,39.44-13.34l-99-183.86c-14.59,11.9-29.92,22.85-46.5,31.83l24.87-13.41a185.46,185.46,0,0,1-43.43,16.74l26.6-6.2c-16.56,3.85-33.47,5.67-50.15,8.88-22.17,4.26-46.09,8.62-66.52,19.1-13.38,6.87-28.41,13.65-40.2,23.54A302.67,302.67,0,0,0,539,183.79a59.73,59.73,0,0,0-6.62,8.49c-5.48,8.5-11.89,17.6-15.94,26.93-1.84,4.26-3.94,13.12-4.32,14.42a134.36,134.36,0,0,0-4.18,14.42c-.13.76-.19,1.49-.27,2.25-.51,4.78-1.25,22.74-.82,27.67l.14,1.47,6.2,26.6c.31,1,.62,1.86,1,2.81,1.26,3.24,11.83,22.95,13.85,25.52.49.62,1,1.19,1.5,1.8C545,355,546.38,355.4,563.25,365.58c4.65,2.81,10,6.53,15.3,9,5.71,2.66,12.53,4.14,18.31,5.83,8.13,2.38,15.83,5.14,24.26,5.82a344.44,344.44,0,0,0,37.89,1c8.32-.23,16.62-1.19,25-1.06L657,385.36a72.75,72.75,0,0,1,17.54,2.57l-25.86-7.57a47.63,47.63,0,0,1,9.63,4.13L635,370.37a36.34,36.34,0,0,1,6,4.64l-19.51-20.44A30.19,30.19,0,0,1,626,360.7l-13.42-24.87.59,1.18,61.59-135.69a206.48,206.48,0,0,1-35.22,11.9l26.6-6.2a207.18,207.18,0,0,1-52.76,5.29l26.93.8c-12.59-.47-24.69-3.05-37.15-4.33-23-2.36-44.7-2.2-66.59,6.25a18.18,18.18,0,0,0-2.57,1.09l-24.86,13.41a30.36,30.36,0,0,0-3.47,2.48l-20.44,19.5a11.73,11.73,0,0,0-1.31,1.42c-6.44,7.49-11.38,16.55-15.5,25.42a111.94,111.94,0,0,0-9.26,30.91c-.72,5-.46,12.29-.56,15.87-.18,6.06-.79,11-.14,16.55a17.34,17.34,0,0,0,.37,1.88l6.2,26.6c.37,1.27.72,2.51,1.21,3.75s1.15,2.46,1.76,3.68c4.43,8.74,9.25,18.37,14.48,26.65a44.46,44.46,0,0,0,4.73,6c6.78,7.5,14,15.6,21.48,22.37.84.76,1.72,1.46,2.62,2.14,11.3,8.42,24.06,14.9,36.11,22.16L524,442.83c5.25,3.19,10.34,6.53,14.65,10.94l-19.5-20.44a35,35,0,0,1,4.79,6.67l-13.42-24.87a32.55,32.55,0,0,1,2.05,5.31l-6.2-26.6a32.86,32.86,0,0,1,.82,7l.8-26.93a38.21,38.21,0,0,1-1.29,8.44l7.56-25.86a45.56,45.56,0,0,1-4.13,9.37l14.12-23.38a50.64,50.64,0,0,1-7.39,9.24l20.44-19.51a66.26,66.26,0,0,1-13.23,9.3l24.87-13.41c-10.1,5.31-21,8.71-31.57,12.81-17.9,6.91-35.07,16.36-51.46,26.15-16.16,9.65-29.8,23.37-42.71,36.82a79.19,79.19,0,0,0-9.45,12c-7.28,11.29-15.43,23.09-20.27,35.84l-7.57,25.86a79,79,0,0,0,2.3,40.23A52.54,52.54,0,0,0,398,543.51a79.83,79.83,0,0,0,26.22,32.88c27.68,18,56.19,34.69,87.44,45.61a528.69,528.69,0,0,0,58.56,16.93c11.24,2.53,23,3.21,34.12,6.27l-25.85-7.57a30.94,30.94,0,0,1,4.81,2l-23.38-14.12a21.86,21.86,0,0,1,3,2.21l-19.5-20.44a17.63,17.63,0,0,1,2.29,3l-13.42-24.87a11.68,11.68,0,0,1,1,2.67l-6.2-26.6a12.64,12.64,0,0,1,.36,2.8l.79-26.93a21.28,21.28,0,0,1-.57,4.28l7.57-25.86a24.8,24.8,0,0,1-2.43,5.38L547,497.74a29.86,29.86,0,0,1-4,4.58l20.45-19.5c-5.25,4.54-11.5,7.6-17.21,11.5-12.91,8.82-24,20.64-35.09,31.37a121.23,121.23,0,0,0-13.51,15.38c-4.63,6.32-8.49,13.17-12.53,19.87-8.64,14.31-14.1,21.29-16.29,40.37L468,628.24A62.75,62.75,0,0,0,474.82,656c-2.79-7.23,9.41,19.93,14.82,27a19,19,0,0,0,1.68,1.9l19.51,20.45c8.57,7.57,19,13.1,29.18,18.19,12.65,6.36,27,9.47,40.88,12.27,15.49,3.12,30.84,6.46,46,10.85l-25.86-7.57a471.64,471.64,0,0,1,54.16,19.51l-61.71-113A153.23,153.23,0,0,1,590,660.8l7.56-25.86a148.16,148.16,0,0,1-14.32,32.59l14.12-23.38a148.82,148.82,0,0,1-24.12,30.24l20.45-19.5a151.87,151.87,0,0,1-13,11l-20.45,19.51L546,708.76l-7.57,25.86a79,79,0,0,0,2.31,40.23,52.43,52.43,0,0,0,9.8,25.73A53.12,53.12,0,0,0,567,823.24a52.52,52.52,0,0,0,21.45,17.28A78.91,78.91,0,0,0,626,855.14l57.57,3.79,27.79,1.83c8.89.59,18.66.18,27.32,2.37l-25.86-7.56a13.37,13.37,0,0,1,2.76,1.14L692.23,842.6a16.07,16.07,0,0,1,2.68,2L675.4,824.2a17,17,0,0,1,1.91,2.63L663.89,802a19.61,19.61,0,0,1,1.17,3.07l-6.2-26.6a22.19,22.19,0,0,1,.5,4.52l.8-26.93a26.28,26.28,0,0,1-1,5.85L666.76,736a27.27,27.27,0,0,1-1.92,4.4L679,717a24.72,24.72,0,0,1-3.93,4.84l20.44-19.51a41.75,41.75,0,0,1-7.39,5.11l24.86-13.42c-6.94,3.55-14.45,5.64-21.6,8.69a249.4,249.4,0,0,0-44,24A108.55,108.55,0,0,0,638,734c-10,8.63-20.26,17.28-28.52,27.55l-14.12,23.38a8.36,8.36,0,0,0-1.24,2.59C586.3,803.83,584,825.3,585.92,843c4.33,39.89,29.74,72,65.32,88.76,30.81,14.51,65.08,17,98.55,15.18,16-.87,31.89-3.42,48-3l-26.93-.79a103.58,103.58,0,0,1,23.64,3.38l-25.85-7.57a66.47,66.47,0,0,1,14.57,6.16L759.8,931A53.91,53.91,0,0,1,770,939l-19.5-20.45,1,1.08a79.26,79.26,0,0,0,31.2,27.5,94.67,94.67,0,0,0,77.78,12.32,79.35,79.35,0,0,0,38.16-16.51L919,923.43a105.3,105.3,0,0,0,21.68-49.24l.79-26.93a104.79,104.79,0,0,0-19.61-51.47c-9.15-9.81-18-21.33-29.44-28.79a310.6,310.6,0,0,0-27.74-16.58,60.36,60.36,0,0,0-6.6-2.87c-10-3.65-20.45-6.38-30.7-9.14-2.37-.64-4.76-1.22-7.18-1.67a108.55,108.55,0,0,0-14.94-1.65c-18.6-.89-36.62-1.35-55.07.38-11.81,1.1-23.61,2.29-35.49,2l26.93.79a93.94,93.94,0,0,1-22.24-3.37l25.86,7.57a66,66,0,0,1-9.38-3.66L759.3,752.9a7.34,7.34,0,0,1-2.13-1.62l19.51,20.45-.7-1.12,19.62,51.47-.3-1.34-.8,26.93.14-1.34-7.57,25.86a8.26,8.26,0,0,1,1.24-2.59L774.2,893a44.11,44.11,0,0,1,4.32-4.64l-20.44,19.5A115,115,0,0,1,781.2,891l-24.86,13.41c7.66-4.08,15.72-6.78,23.76-10,24.56-9.71,44.4-23,61.54-43.08C862.42,827,871.71,792.51,869,760.9c-2.65-31.28-19.18-64.78-45.36-83-17.52-12.21-36.24-21.86-58-23.79-4.46-.39-9-.59-13.42-.89l-31.76-2.09L659,647.05l45.44,189.27c14.53-10.88,27.77-23.8,40-37.13a147.32,147.32,0,0,0,16.79-22.27c9.23-14.94,19.08-29.84,25.48-46.3,4.74-12.21,8-25,11.55-37.61,1.34-4.73,2.46-9.5,3.35-14.35l.79-26.93a78.36,78.36,0,0,0-12.91-39A53,53,0,0,0,773,590,78.4,78.4,0,0,0,739.9,565.7c-26-11.2-52.81-19.28-80-27.08-9.53-2.73-19.12-5.22-28.8-7.36-8.41-1.86-17-3-25.31-5.45l25.85,7.57a44.15,44.15,0,0,1-8.67-3.69l23.39,14.11a28.7,28.7,0,0,1-4.07-3.12l19.5,20.45a23.1,23.1,0,0,1-3.09-4.07l13.42,24.86-.59-1.18-2.16,79.39c.54-1,1.09-1.89,1.66-2.83l-14.12,23.38a121.81,121.81,0,0,1,19.58-24.12L656,676.06a121.62,121.62,0,0,1,14.73-11.75c4.85-3.25,10.14-5.89,14.73-9.53,7.68-6.11,15.34-14,22.24-21a45.24,45.24,0,0,0,3.13-3.37,112.61,112.61,0,0,0,7.91-12.91q3.94-6.45,7.82-13a38.28,38.28,0,0,0,1.67-4.1l7.57-25.86a12.94,12.94,0,0,0,.42-2.13,11.05,11.05,0,0,0,.14-2.15l.8-26.93a12,12,0,0,0-.36-2.8l-6.2-26.6c-3.37-9.67-9.3-20.06-14.43-27.54A103.28,103.28,0,0,0,693,461.78a12.52,12.52,0,0,0-1.58-1L668,446.64c-1.19-.58-2.32-1.1-3.55-1.57A247.94,247.94,0,0,0,636,436.75c-1.1-.26-2.2-.51-3.31-.71-2.68-.5-5.39-.81-8.08-1.21a301.5,301.5,0,0,1-39.19-8.56l25.86,7.56a302.1,302.1,0,0,1-70.15-30.72l23.38,14.12q-4.47-2.72-8.87-5.57l30.76,124.7a72.53,72.53,0,0,1,5.78-11.85l-14.12,23.38a83,83,0,0,1,13-15.68l-20.45,19.5A122.42,122.42,0,0,1,595,534.49l-24.87,13.42c12.59-6.74,25.93-11.21,39.18-16.37A248.3,248.3,0,0,0,652.91,509a63.36,63.36,0,0,0,8.23-6.36c6.86-6.2,19.52-16.63,26.22-26.25,14.64-21,23.07-38.58,28.11-63.9a39.54,39.54,0,0,0,.61-5.64c.56-9.51,1.55-20.23.69-29.74a121.28,121.28,0,0,0-8.35-34.82c-9.44-22.93-23.17-41.23-42.38-57-11.78-9.66-26-16.5-38.94-24.3l23.38,14.12A63.56,63.56,0,0,1,638.12,266l19.51,20.44a43.37,43.37,0,0,1-5.79-7.82l13.41,24.86a35.37,35.37,0,0,1-3-7.43l6.2,26.6a27.48,27.48,0,0,1-.63-4.95l-.79,26.93a21,21,0,0,1,.67-4.73l-7.56,25.86a19.52,19.52,0,0,1,1.48-3.26l-14.12,23.38a20.45,20.45,0,0,1,2.4-2.93l-20.45,19.51a22.74,22.74,0,0,1,3.46-2.48L608.08,413.4a26.66,26.66,0,0,1,3.91-1.48l-26.61,6.2a34.17,34.17,0,0,1,7.2-.74l-26.94-.8c10.71.35,21.26,3.19,32,4.06,19.68,1.61,39.92,2.41,59.68.78s39-6.58,58.07-11.33a205.25,205.25,0,0,0,33.49-11.49,79.81,79.81,0,0,0,35.09-23.17,78.4,78.4,0,0,0,24.34-33.13l7.56-25.86a105.2,105.2,0,0,0-5.4-53.53c-11-22.08-22.59-43.31-44-57.26-22.24-14.48-38.09-22.3-64.82-27.22-23.66-4.36-47.39-.23-71.09-.91l26.93.8a65,65,0,0,1-14.68-2.24l25.86,7.57a45,45,0,0,1-9-4L683,193.8a15.75,15.75,0,0,1-2.52-1.91L700,212.33a10,10,0,0,1-1.93-2.45l13.41,24.87a9.32,9.32,0,0,1-1-2.81l6.2,26.6-.14-1.47-.8,26.93a19,19,0,0,1,.7-4.49l-7.57,25.86a33.2,33.2,0,0,1,1.95-4.35L696.69,324.4a60.56,60.56,0,0,1,9.71-11.88L686,332a85.93,85.93,0,0,1,17.36-12.44L678.45,333a134.1,134.1,0,0,1,32.07-11.68l-26.6,6.2c36.46-8.33,74.23-10.44,109.38-24.41,20.29-8.06,39.68-18.95,58.17-30.5a325.75,325.75,0,0,0,33.22-24.12,79.37,79.37,0,0,0,27.5-31.19,79,79,0,0,0,14.63-37.55l.79-26.93a78.33,78.33,0,0,0-12.91-39,53,53,0,0,0-16.46-22.66,78.4,78.4,0,0,0-33.13-24.34l-25.86-7.57a105.32,105.32,0,0,0-53.53,5.41,243.16,243.16,0,0,1-40.35,13.56L772,72c-15.08,3.51-30.6,6-46.12,5.79l26.93.79a94.14,94.14,0,0,1-22.33-3.28l25.86,7.57a91.88,91.88,0,0,1-21.19-9.33l23.39,14.12a92.27,92.27,0,0,1-13.2-10A79.44,79.44,0,0,0,709,59.76a79.53,79.53,0,0,0-39.86-4.57,78.39,78.39,0,0,0-39,12.9,79.83,79.83,0,0,0-32.88,26.22l-14.11,23.38a105.87,105.87,0,0,0-8.36,52.79l6.2,26.6a106.11,106.11,0,0,0,32.92,45.31Z" transform="translate(16.9 -54.42)"/></g><g id="Layer_1" data-name="Layer 1"><rect class="cls-2" x="58.01" y="59.28" width="329.07" height="744.36"/><polygon class="cls-2" points="718.57 409.9 975.8 871.18 646.72 871.18 389.49 409.9 646.72 37.73 975.8 37.73 718.57 409.9"/></g></svg>